Coordinates
version=1
nRows=12
nColumns=34
inDegrees=yes

Units are S.I. units (second, meters, Newtons, ...)
If the header above contains a line with 'inDegrees', this indicates whether rotational values are in degrees (yes) or radians (no).

endheader
time	pelvis_tilt	pelvis_list	pelvis_rotation	pelvis_tx	pelvis_ty	pelvis_tz	hip_flexion_r	hip_adduction_r	hip_rotation_r	knee_angle_r	ankle_angle_r	subtalar_angle_r	mtp_angle_r	hip_flexion_l	hip_adduction_l	hip_rotation_l	knee_angle_l	ankle_angle_l	subtalar_angle_l	mtp_angle_l	lumbar_extension	lumbar_bending	lumbar_rotation	arm_flex_r	arm_add_r	arm_rot_r	elbow_flex_r	pro_sup_r	arm_flex_l	arm_add_l	arm_rot_l	elbow_flex_l	pro_sup_l
      9.75000000	     -2.06893751	     -0.92303496	      3.67345807	      1.07020594	      1.15392937	      0.00696257	     -3.48933270	      5.05860840	     -2.41490847	      3.69073957	     12.32099933	    -17.00941400	      0.00000000	     25.34942177	     -1.46013007	      3.05219667	     24.68363740	      9.95666882	    -12.10818575	      0.00000000	     -6.81398853	      1.16959472	      2.25969160	     -0.41441885	     -9.91901021	     -6.63361363	     47.39529931	     90.74078857	     -9.24965882	     -3.68987607	    -17.41431702	     25.17966099	    102.36510004
      9.76666670	     -1.75021025	     -0.27382591	      4.33319460	      1.08456247	      1.15540544	      0.00591842	     -5.11672274	      4.67972449	     -2.50332617	      3.00139081	     14.33472892	    -15.53554006	      0.00000000	     24.76571788	     -0.53066079	      3.47500826	     20.87282777	      8.73919502	    -10.79438956	      0.00000000	     -7.71420936	      0.21263094	      2.06791118	     -0.41497995	     -9.41637899	     -7.86733041	     49.38377344	     90.99883095	     -8.84629258	     -4.16956842	    -17.18902158	     24.06905215	    101.95779666
      9.78333330	     -1.50677861	      0.32035711	      4.87206603	      1.10002524	      1.15636416	      0.00189168	     -6.74280225	      4.23136678	     -2.52586318	      2.36677200	     15.89256930	    -14.64772495	      0.00000000	     24.09106441	      0.43880552	      3.95874417	     17.15502810	      7.58956098	     -9.42490272	      0.00000000	     -8.40342093	     -0.74224855	      2.05583465	     -0.29715699	     -9.02082884	     -8.79135901	     50.31803038	     91.28279033	     -8.44257103	     -4.64471552	    -16.64754183	     23.19140701	    101.58240844
      9.80000000	     -1.04078290	      0.82880183	      5.01753924	      1.11574115	      1.15604052	     -0.00277802	     -8.48009366	      3.69499727	     -2.56584360	      2.03229144	     17.06369239	    -13.90951679	      0.00000000	     23.06645201	      1.30115836	      4.37664204	     13.72725523	      6.50425933	     -8.35791501	      0.00000000	     -9.25384202	     -1.50467270	      2.30837531	     -0.08383197	     -8.84802689	     -9.46821295	     50.47926685	     91.51929613	     -7.99296155	     -4.81197854	    -16.05540996	     22.58903318	    101.23491798
      9.81666670	     -0.37858091	      1.32437798	      4.79110276	      1.13211229	      1.15385466	     -0.00460460	    -10.29987377	      3.07024889	     -2.69494620	      1.96559623	     17.81184741	    -13.26696212	      0.00000000	     21.89593854	      2.02223006	      4.72620309	     11.13135840	      5.43737387	     -7.79628956	      0.00000000	    -10.09823483	     -2.27526391	      2.78993360	      0.11512877	     -8.73319397	    -10.15023749	     50.07335185	     91.70751093	     -7.57259723	     -4.85107414	    -15.51118580	     22.42327699	    100.86392297
      9.83333330	      0.40335352	      1.89965408	      4.33474903	      1.15039352	      1.15107312	     -0.00223263	    -12.23542696	      2.36978245	     -2.88447093	      2.04058522	     18.13958260	    -12.79896678	      0.00000000	     20.76521632	      2.64580506	      5.03796067	      9.72624610	      4.36701378	     -7.85668860	      0.00000000	    -10.78117908	     -3.21631560	      3.28435454	      0.19281393	     -8.49790567	    -10.85827905	     49.36578078	     91.85267189	     -7.30309611	     -4.96945603	    -15.16068432	     22.67532560	    100.46668755
      9.85000000	      1.16543182	      2.56797321	      3.85223371	      1.16873680	      1.14893569	      0.00279280	    -14.21752069	      1.70024577	     -3.23081845	      2.07857938	     18.02556290	    -12.55451672	      0.00000000	     19.87081736	      3.23082299	      5.34895971	      9.52495867	      3.28582634	     -8.51331171	      0.00000000	    -11.24640948	     -4.40566303	      3.61231106	      0.17083660	     -8.03013595	    -11.49509682	     48.61926638	     91.99031861	     -7.18906975	     -5.24897115	    -15.06129586	     23.10400514	    100.04077053
      9.86666670	      1.70997690	      3.21278481	      3.44998858	      1.18417592	      1.14746415	      0.00655378	    -15.93896311	      1.16477689	     -3.69571685	      2.11918043	     17.40541485	    -12.39283278	      0.00000000	     19.33907125	      3.78058715	      5.81433672	     10.07914336	      2.31425601	     -9.65018448	      0.00000000	    -11.48506460	     -5.70822962	      3.72418208	      0.23382271	     -7.44121851	    -11.96187839	     47.96033878	     92.19829452	     -7.19506245	     -5.69315767	    -15.14806476	     23.39926459	     99.52449464
      9.88333330	      1.80707399	      3.66500947	      3.23375123	      1.19803192	      1.14639506	      0.00510186	    -16.87288692	      0.77994761	     -4.36441670	      2.64671735	     16.21072074	    -12.27097023	      0.00000000	     19.30662472	      4.24364105	      6.03043371	     10.96386941	      1.56786869	    -10.26031461	      0.00000000	    -11.27569074	     -6.75275754	      3.82324900	      0.10134160	     -7.00735489	    -11.94910900	     47.57201776	     92.32633695	     -7.25550461	     -6.11103634	    -15.24292201	     23.31910916	     99.29340828
      9.90000000	      1.90505839	      3.90495429	      3.28341542	      1.21307524	      1.14620560	     -0.00155904	    -17.41522099	      0.50242974	     -5.22284746	      3.86522760	     14.45604132	    -12.15456651	      0.00000000	     19.16135676	      4.73402246	      6.45433466	     11.87376211	      0.46515505	    -11.19161332	      0.00000000	    -11.33260145	     -7.32502166	      3.85640325	      0.14271741	     -6.74135494	    -11.96861506	     46.84151016	     92.48895602	     -7.22610808	     -6.33031318	    -15.27660234	     22.96826296	     99.03136694
      9.91666670	      1.94982429	      3.97094783	      3.46374064	      1.22953116	      1.14626335	     -0.00897571	    -17.42643981	      0.22326558	     -6.09028501	      6.02539906	     12.24001874	    -12.29164402	      0.00000000	     18.92554459	      5.27567715	      7.25358505	     12.81186129	     -0.68498159	    -12.84959351	      0.00000000	    -11.47952077	     -7.38654787	      3.69638887	      0.33262381	     -6.60499746	    -12.00955313	     45.61571080	     92.86533979	     -7.19628961	     -6.28480568	    -15.13996057	     22.08303958	     98.47967226
      9.93333330	      2.03594025	      4.04137930	      3.70779251	      1.24549914	      1.14621961	     -0.01226662	    -17.28579457	     -0.16080217	     -7.22234919	      8.61067791	      9.48736460	    -12.03608830	      0.00000000	     18.64250996	      5.79585471	      7.45668389	     13.96801325	     -1.08072783	    -13.07325367	      0.00000000	    -11.80406908	     -7.51822780	      3.74505650	     -0.08882117	     -6.57600308	    -11.99926365	     44.97815123	     92.98224085	     -7.20091865	     -6.13962417	    -15.04694890	     21.91665841	     98.32104291
